<mxfile host="app.diagrams.net" agent="Mozilla/5.0 (Windows NT 10.0; Win64; x64) AppleWebKit/537.36 (KHTML, like Gecko) Chrome/130.0.0.0 Safari/537.36 Edg/130.0.0.0" version="24.8.2">
  <diagram name="Página-1" id="A1XricTwvR2LtzFUGfRS">
    <mxGraphModel dx="2316" dy="770" grid="1" gridSize="10" guides="1" tooltips="1" connect="1" arrows="1" fold="1" page="1" pageScale="1" pageWidth="827" pageHeight="1169" math="0" shadow="0">
      <root>
        <mxCell id="0" />
        <mxCell id="1" parent="0" />
        <mxCell id="thF2VDcHaVG7FaZjGytK-1" value="Estudante" style="shape=umlActor;verticalLabelPosition=bottom;verticalAlign=top;html=1;outlineConnect=0;" parent="1" vertex="1">
          <mxGeometry x="-100" y="30" width="50" height="100" as="geometry" />
        </mxCell>
        <mxCell id="thF2VDcHaVG7FaZjGytK-5" value="Tela principal" style="shape=umlBoundary;whiteSpace=wrap;html=1;" parent="1" vertex="1">
          <mxGeometry x="30" y="40" width="100" height="80" as="geometry" />
        </mxCell>
        <mxCell id="thF2VDcHaVG7FaZjGytK-9" style="edgeStyle=orthogonalEdgeStyle;rounded=0;orthogonalLoop=1;jettySize=auto;html=1;entryX=0.05;entryY=0.496;entryDx=0;entryDy=0;entryPerimeter=0;" parent="1" source="thF2VDcHaVG7FaZjGytK-5" edge="1">
          <mxGeometry relative="1" as="geometry">
            <mxPoint x="203.9375" y="79.63999999999999" as="targetPoint" />
          </mxGeometry>
        </mxCell>
        <mxCell id="thF2VDcHaVG7FaZjGytK-35" style="edgeStyle=orthogonalEdgeStyle;rounded=0;orthogonalLoop=1;jettySize=auto;html=1;entryX=0.018;entryY=0.495;entryDx=0;entryDy=0;entryPerimeter=0;" parent="1" source="thF2VDcHaVG7FaZjGytK-1" target="thF2VDcHaVG7FaZjGytK-5" edge="1">
          <mxGeometry relative="1" as="geometry" />
        </mxCell>
        <mxCell id="thF2VDcHaVG7FaZjGytK-37" value="Acessar tela de lives" style="ellipse;shape=umlControl;whiteSpace=wrap;html=1;" parent="1" vertex="1">
          <mxGeometry x="200" y="30" width="78.75" height="90" as="geometry" />
        </mxCell>
        <mxCell id="yQ8m5PVfVtzuY-FzAJRZ-3" style="edgeStyle=orthogonalEdgeStyle;rounded=0;orthogonalLoop=1;jettySize=auto;html=1;" edge="1" parent="1" source="thF2VDcHaVG7FaZjGytK-38">
          <mxGeometry relative="1" as="geometry">
            <mxPoint x="278.75" y="180" as="targetPoint" />
          </mxGeometry>
        </mxCell>
        <mxCell id="thF2VDcHaVG7FaZjGytK-38" value="Tela de lives" style="shape=umlBoundary;whiteSpace=wrap;html=1;" parent="1" vertex="1">
          <mxGeometry x="-60" y="160" width="140" height="112" as="geometry" />
        </mxCell>
        <mxCell id="thF2VDcHaVG7FaZjGytK-39" value="" style="endArrow=classic;html=1;rounded=0;entryX=0.997;entryY=0.356;entryDx=0;entryDy=0;entryPerimeter=0;" parent="1" source="thF2VDcHaVG7FaZjGytK-37" target="thF2VDcHaVG7FaZjGytK-38" edge="1">
          <mxGeometry width="50" height="50" relative="1" as="geometry">
            <mxPoint x="280" y="250" as="sourcePoint" />
            <mxPoint x="330" y="200" as="targetPoint" />
          </mxGeometry>
        </mxCell>
        <mxCell id="yQ8m5PVfVtzuY-FzAJRZ-14" style="edgeStyle=orthogonalEdgeStyle;rounded=0;orthogonalLoop=1;jettySize=auto;html=1;entryX=0;entryY=0.5;entryDx=0;entryDy=0;" edge="1" parent="1" source="yQ8m5PVfVtzuY-FzAJRZ-11" target="yQ8m5PVfVtzuY-FzAJRZ-12">
          <mxGeometry relative="1" as="geometry" />
        </mxCell>
        <mxCell id="yQ8m5PVfVtzuY-FzAJRZ-36" style="edgeStyle=orthogonalEdgeStyle;rounded=0;orthogonalLoop=1;jettySize=auto;html=1;entryX=0.03;entryY=0.694;entryDx=0;entryDy=0;entryPerimeter=0;" edge="1" parent="1" source="yQ8m5PVfVtzuY-FzAJRZ-11" target="yQ8m5PVfVtzuY-FzAJRZ-35">
          <mxGeometry relative="1" as="geometry">
            <Array as="points">
              <mxPoint x="350" y="309" />
            </Array>
          </mxGeometry>
        </mxCell>
        <mxCell id="yQ8m5PVfVtzuY-FzAJRZ-11" value="Entrar na live" style="ellipse;shape=umlControl;whiteSpace=wrap;html=1;" vertex="1" parent="1">
          <mxGeometry x="278.75" y="130" width="78.75" height="90" as="geometry" />
        </mxCell>
        <mxCell id="yQ8m5PVfVtzuY-FzAJRZ-12" value="Live ao vivo&amp;nbsp;" style="ellipse;shape=umlEntity;whiteSpace=wrap;html=1;" vertex="1" parent="1">
          <mxGeometry x="575" y="130" width="90" height="90" as="geometry" />
        </mxCell>
        <mxCell id="yQ8m5PVfVtzuY-FzAJRZ-13" value="Chat da Live" style="ellipse;shape=umlEntity;whiteSpace=wrap;html=1;" vertex="1" parent="1">
          <mxGeometry x="430" y="485" width="92.5" height="92.5" as="geometry" />
        </mxCell>
        <mxCell id="yQ8m5PVfVtzuY-FzAJRZ-15" value="Abrir player na tela de lives" style="ellipse;shape=umlControl;whiteSpace=wrap;html=1;" vertex="1" parent="1">
          <mxGeometry x="150" y="230" width="87.5" height="100" as="geometry" />
        </mxCell>
        <mxCell id="yQ8m5PVfVtzuY-FzAJRZ-18" value="" style="endArrow=classic;html=1;rounded=0;exitX=0.257;exitY=0.967;exitDx=0;exitDy=0;exitPerimeter=0;" edge="1" parent="1" source="yQ8m5PVfVtzuY-FzAJRZ-11" target="yQ8m5PVfVtzuY-FzAJRZ-15">
          <mxGeometry width="50" height="50" relative="1" as="geometry">
            <mxPoint x="220" y="250" as="sourcePoint" />
            <mxPoint x="270" y="200" as="targetPoint" />
          </mxGeometry>
        </mxCell>
        <mxCell id="yQ8m5PVfVtzuY-FzAJRZ-19" value="Caso haja uma live no momento" style="edgeLabel;html=1;align=center;verticalAlign=middle;resizable=0;points=[];" vertex="1" connectable="0" parent="yQ8m5PVfVtzuY-FzAJRZ-18">
          <mxGeometry x="0.3114" y="4" relative="1" as="geometry">
            <mxPoint x="-18" y="-17" as="offset" />
          </mxGeometry>
        </mxCell>
        <mxCell id="yQ8m5PVfVtzuY-FzAJRZ-21" value="Mensagem de nenhuma live no momento&amp;nbsp;" style="ellipse;shape=umlControl;whiteSpace=wrap;html=1;" vertex="1" parent="1">
          <mxGeometry x="140" y="350" width="87.5" height="100" as="geometry" />
        </mxCell>
        <mxCell id="yQ8m5PVfVtzuY-FzAJRZ-22" style="edgeStyle=orthogonalEdgeStyle;rounded=0;orthogonalLoop=1;jettySize=auto;html=1;entryX=0.999;entryY=0.504;entryDx=0;entryDy=0;entryPerimeter=0;" edge="1" parent="1" source="yQ8m5PVfVtzuY-FzAJRZ-11" target="yQ8m5PVfVtzuY-FzAJRZ-21">
          <mxGeometry relative="1" as="geometry">
            <Array as="points">
              <mxPoint x="330" y="400" />
            </Array>
          </mxGeometry>
        </mxCell>
        <mxCell id="yQ8m5PVfVtzuY-FzAJRZ-23" value="Caso não haja live no momento&amp;nbsp;" style="edgeLabel;html=1;align=center;verticalAlign=middle;resizable=0;points=[];" vertex="1" connectable="0" parent="yQ8m5PVfVtzuY-FzAJRZ-22">
          <mxGeometry x="-0.0527" y="-2" relative="1" as="geometry">
            <mxPoint as="offset" />
          </mxGeometry>
        </mxCell>
        <mxCell id="yQ8m5PVfVtzuY-FzAJRZ-25" style="edgeStyle=orthogonalEdgeStyle;rounded=0;orthogonalLoop=1;jettySize=auto;html=1;entryX=0.869;entryY=0.867;entryDx=0;entryDy=0;entryPerimeter=0;" edge="1" parent="1" source="yQ8m5PVfVtzuY-FzAJRZ-15" target="thF2VDcHaVG7FaZjGytK-38">
          <mxGeometry relative="1" as="geometry">
            <Array as="points">
              <mxPoint x="115" y="280" />
              <mxPoint x="115" y="292" />
              <mxPoint x="80" y="292" />
              <mxPoint x="80" y="271" />
              <mxPoint x="62" y="271" />
            </Array>
          </mxGeometry>
        </mxCell>
        <mxCell id="yQ8m5PVfVtzuY-FzAJRZ-28" value="" style="endArrow=classic;html=1;rounded=0;exitX=0.432;exitY=0.055;exitDx=0;exitDy=0;exitPerimeter=0;" edge="1" parent="1" source="thF2VDcHaVG7FaZjGytK-38" target="thF2VDcHaVG7FaZjGytK-1">
          <mxGeometry width="50" height="50" relative="1" as="geometry">
            <mxPoint x="-50" y="240" as="sourcePoint" />
            <mxPoint y="190" as="targetPoint" />
          </mxGeometry>
        </mxCell>
        <mxCell id="yQ8m5PVfVtzuY-FzAJRZ-29" style="edgeStyle=orthogonalEdgeStyle;rounded=0;orthogonalLoop=1;jettySize=auto;html=1;entryX=0.783;entryY=0.951;entryDx=0;entryDy=0;entryPerimeter=0;" edge="1" parent="1" source="yQ8m5PVfVtzuY-FzAJRZ-21" target="thF2VDcHaVG7FaZjGytK-38">
          <mxGeometry relative="1" as="geometry">
            <Array as="points">
              <mxPoint x="60" y="400" />
              <mxPoint x="60" y="274" />
              <mxPoint x="50" y="274" />
            </Array>
          </mxGeometry>
        </mxCell>
        <mxCell id="yQ8m5PVfVtzuY-FzAJRZ-30" value="Mandar mensagem no chat" style="ellipse;shape=umlControl;whiteSpace=wrap;html=1;" vertex="1" parent="1">
          <mxGeometry x="-20" y="390" width="85.31" height="97.5" as="geometry" />
        </mxCell>
        <mxCell id="yQ8m5PVfVtzuY-FzAJRZ-31" style="edgeStyle=orthogonalEdgeStyle;rounded=0;orthogonalLoop=1;jettySize=auto;html=1;entryX=0.349;entryY=0.143;entryDx=0;entryDy=0;entryPerimeter=0;" edge="1" parent="1" source="thF2VDcHaVG7FaZjGytK-38" target="yQ8m5PVfVtzuY-FzAJRZ-30">
          <mxGeometry relative="1" as="geometry" />
        </mxCell>
        <mxCell id="yQ8m5PVfVtzuY-FzAJRZ-32" value="validar parecença na live&amp;nbsp;" style="ellipse;shape=umlControl;whiteSpace=wrap;html=1;" vertex="1" parent="1">
          <mxGeometry x="130" y="487.5" width="78.75" height="90" as="geometry" />
        </mxCell>
        <mxCell id="yQ8m5PVfVtzuY-FzAJRZ-33" style="edgeStyle=orthogonalEdgeStyle;rounded=0;orthogonalLoop=1;jettySize=auto;html=1;entryX=0.033;entryY=0.428;entryDx=0;entryDy=0;entryPerimeter=0;" edge="1" parent="1" source="yQ8m5PVfVtzuY-FzAJRZ-30" target="yQ8m5PVfVtzuY-FzAJRZ-32">
          <mxGeometry relative="1" as="geometry" />
        </mxCell>
        <mxCell id="yQ8m5PVfVtzuY-FzAJRZ-35" value="Lista de participantes da live" style="ellipse;shape=umlEntity;whiteSpace=wrap;html=1;" vertex="1" parent="1">
          <mxGeometry x="565" y="240" width="100" height="100" as="geometry" />
        </mxCell>
        <mxCell id="yQ8m5PVfVtzuY-FzAJRZ-38" value="" style="endArrow=classic;html=1;rounded=0;exitX=0.866;exitY=0.232;exitDx=0;exitDy=0;exitPerimeter=0;entryX=0;entryY=1;entryDx=0;entryDy=0;" edge="1" parent="1" source="yQ8m5PVfVtzuY-FzAJRZ-32" target="yQ8m5PVfVtzuY-FzAJRZ-35">
          <mxGeometry width="50" height="50" relative="1" as="geometry">
            <mxPoint x="370" y="440" as="sourcePoint" />
            <mxPoint x="420" y="390" as="targetPoint" />
          </mxGeometry>
        </mxCell>
        <mxCell id="yQ8m5PVfVtzuY-FzAJRZ-41" style="edgeStyle=orthogonalEdgeStyle;rounded=0;orthogonalLoop=1;jettySize=auto;html=1;entryX=0;entryY=0.5;entryDx=0;entryDy=0;" edge="1" parent="1" source="yQ8m5PVfVtzuY-FzAJRZ-39" target="yQ8m5PVfVtzuY-FzAJRZ-13">
          <mxGeometry relative="1" as="geometry" />
        </mxCell>
        <mxCell id="yQ8m5PVfVtzuY-FzAJRZ-39" value="Adicionar mensagem ao chat" style="ellipse;shape=umlControl;whiteSpace=wrap;html=1;" vertex="1" parent="1">
          <mxGeometry x="278.75" y="474.65" width="90" height="102.85" as="geometry" />
        </mxCell>
        <mxCell id="yQ8m5PVfVtzuY-FzAJRZ-40" style="edgeStyle=orthogonalEdgeStyle;rounded=0;orthogonalLoop=1;jettySize=auto;html=1;entryX=0.003;entryY=0.569;entryDx=0;entryDy=0;entryPerimeter=0;" edge="1" parent="1" source="yQ8m5PVfVtzuY-FzAJRZ-32" target="yQ8m5PVfVtzuY-FzAJRZ-39">
          <mxGeometry relative="1" as="geometry" />
        </mxCell>
      </root>
    </mxGraphModel>
  </diagram>
</mxfile>
